<?xml version="1.0" encoding="UTF-8" standalone="no"?><!DOCTYPE svg PUBLIC "-//W3C//DTD SVG 1.1//EN" "http://www.w3.org/Graphics/SVG/1.1/DTD/svg11.dtd"><svg width="100%" height="100%" viewBox="0 0 2621 2138" version="1.1" xmlns="http://www.w3.org/2000/svg" xmlns:xlink="http://www.w3.org/1999/xlink" xml:space="preserve" xmlns:serif="http://www.serif.com/" style="fill-rule:evenodd;clip-rule:evenodd;stroke-linejoin:round;stroke-miterlimit:2;"><g id="Fundo"><path d="M1831.261,891.805c-9.863,-0.248 -272.181,-0.034 -331.874,-45.776c-62.333,-47.766 284.409,-303.538 589.959,-415.472c436.055,-159.743 634.731,83.526 369.621,294.714c-181.968,144.957 -575.813,164.022 -627.706,166.534Z" style="fill:#c8a8d9;"/><path d="M860.375,891.8c-763.539,0.114 -951.472,-430.767 -633.38,-502.562c355.597,-80.26 960.621,384.004 939.849,445.519c-15.682,46.441 -281.547,56.134 -306.469,57.043Z" style="fill:#c8a8d9;"/><path d="M1229.029,1156.214c-0.495,-27.336 -3.903,-215.77 5.268,-341.711c7.601,-104.386 25.174,-108.27 -10.074,-171.49c-99.817,-179.029 139.499,-289.101 212.273,-145.631c56.281,110.955 -37.057,141.128 -28.153,213.289c38.299,310.39 -0.849,890.936 -26.178,1074.892c-69.005,501.165 -141.252,-129.131 -153.135,-629.349Z" style="fill:#c8a8d9;"/><path d="M1006.181,945.719c27.564,2.848 228.278,3.008 149.246,84.852c-265.195,274.633 -791.25,432.349 -854.205,221.769c-23.817,-79.666 118.058,-326.932 704.959,-306.622Z" style="fill:#c8a8d9;"/><path d="M1656.332,945.66c46.809,-1.527 366.914,-11.967 573.66,116.763c15.692,9.771 165.039,102.761 120.393,197.225c-113.973,241.148 -706.617,-48.186 -855.798,-241.531c-48.857,-63.32 74.319,-65.552 161.746,-72.456Z" style="fill:#c8a8d9;"/></g></svg>