<?xml version="1.0" encoding="UTF-8" standalone="no"?><!DOCTYPE svg PUBLIC "-//W3C//DTD SVG 1.1//EN" "http://www.w3.org/Graphics/SVG/1.1/DTD/svg11.dtd"><svg width="100%" height="100%" viewBox="0 0 513 513" version="1.1" xmlns="http://www.w3.org/2000/svg" xmlns:xlink="http://www.w3.org/1999/xlink" xml:space="preserve" xmlns:serif="http://www.serif.com/" style="fill-rule:evenodd;clip-rule:evenodd;stroke-linejoin:round;stroke-miterlimit:2;"><g id="Fundo"><path d="M356.724,191.646c-1.968,-0.057 -54.295,-0.008 -66.203,-10.517c-12.434,-10.974 56.735,-69.738 117.687,-95.455c86.985,-36.701 126.618,19.19 73.733,67.711c-36.299,33.304 -114.865,37.684 -125.216,38.261Z" style="fill:#c8a8d9;stroke:#000;stroke-width:11.66px;"/><path d="M163.05,191.645c-152.313,0.026 -189.802,-98.969 -126.348,-115.464c70.935,-18.44 191.627,88.225 187.483,102.358c-3.128,10.67 -56.164,12.897 -61.135,13.106Z" style="fill:#c8a8d9;stroke:#000;stroke-width:11.66px;"/><path d="M236.59,252.394c-0.099,-6.28 -0.779,-49.573 1.051,-78.508c1.516,-23.983 5.022,-24.875 -2.01,-39.4c-19.912,-41.132 27.828,-66.421 42.345,-33.459c11.227,25.492 -7.392,32.424 -5.616,49.003c7.64,71.312 -0.169,204.693 -5.222,246.957c-13.765,115.143 -28.177,-29.668 -30.548,-144.593Z" style="fill:#c8a8d9;stroke:#000;stroke-width:11.66px;"/><path d="M192.135,204.033c5.499,0.654 45.537,0.691 29.772,19.495c-52.902,63.097 -157.84,99.332 -170.399,50.952c-4.751,-18.303 23.551,-75.113 140.627,-70.447Z" style="fill:#c8a8d9;stroke:#000;stroke-width:11.66px;"/><path d="M321.829,204.019c9.338,-0.351 73.193,-2.749 114.435,26.826c3.13,2.245 32.922,23.609 24.016,45.313c-22.736,55.404 -140.958,-11.071 -170.717,-55.492c-9.746,-14.548 14.825,-15.061 32.265,-16.647Z" style="fill:#c8a8d9;stroke:#000;stroke-width:11.66px;"/></g></svg>